<?xml version="1.0" encoding="utf-8"?>
<!-- Generator: Adobe Illustrator 28.1.0, SVG Export Plug-In . SVG Version: 6.00 Build 0)  -->
<svg version="1.1" id="Layer_1" xmlns="http://www.w3.org/2000/svg" xmlns:xlink="http://www.w3.org/1999/xlink" x="0px" y="0px"
	 viewBox="0 0 1440 1024" style="enable-background:new 0 0 1440 1024;" xml:space="preserve">
<style type="text/css">
	.st0{fill:#FFFFFF;}
	.st1{clip-path:url(#SVGID_00000084521606584752997110000006568168720290217105_);}
	.st2{fill:#F5F8FF;}
	.st3{fill:url(#SVGID_00000154388500392633693720000015117603289308755625_);}
	.st4{fill:#56EB84;}
	.st5{fill:#56E39F;}
	.st6{fill:#FFCCB3;}
	.st7{fill:none;stroke:#EF6A77;stroke-width:1.0783;stroke-linecap:round;}
	.st8{fill:#D1E8F7;}
	.st9{fill:#5CA4E6;}
	.st10{fill:#5661AE;}
	.st11{fill:#BC775C;}
	.st12{fill:#93523E;stroke:#93523E;}
	.st13{fill:#2BE398;}
	.st14{fill:#1F2D49;}
	.st15{fill:#0D1B33;}
	.st16{fill:url(#SVGID_00000026850156390642418490000015884244976621738686_);}
	.st17{fill-rule:evenodd;clip-rule:evenodd;fill:#5661AE;}
	.st18{fill-rule:evenodd;clip-rule:evenodd;fill:#FFCCB3;}
	.st19{fill-rule:evenodd;clip-rule:evenodd;fill:#FFFFFF;}
	.st20{fill-rule:evenodd;clip-rule:evenodd;fill:#FCBA9F;}
	.st21{fill:none;stroke:#5CA4E6;stroke-width:1.0969;stroke-miterlimit:10;}
	.st22{fill:#FCBA9F;}
	.st23{fill:#281D0D;}
	.st24{fill:#33C8BE;}
	.st25{fill:#33A1BE;}
	.st26{fill:url(#SVGID_00000101087222476389442480000000702204427477994164_);}
	.st27{fill:#00D384;}
	.st28{fill:#00B184;}
	.st29{fill:none;stroke:#93523E;stroke-width:1.0783;stroke-linecap:round;}
	.st30{fill:#46AC84;}
	.st31{fill:#493212;}
	.st32{fill:#080B09;}
	.st33{fill:#E7EFFF;}
	.st34{fill:#96BAFD;}
	.st35{fill:none;stroke:#EF6A77;stroke-linecap:round;stroke-miterlimit:10;}
	.st36{fill:#56CB9F;}
	.st37{fill:none;stroke:#D4DCF4;stroke-width:12;stroke-linecap:round;stroke-miterlimit:10;}
	.st38{fill:#88D89F;stroke:#56A89F;stroke-width:12;stroke-linecap:round;stroke-miterlimit:10;}
	.st39{fill:none;stroke:#88D8B6;stroke-width:12;stroke-linecap:round;stroke-miterlimit:10;}
	.st40{fill:none;stroke:#88B49F;stroke-width:12;stroke-linecap:round;stroke-miterlimit:10;}
	.st41{fill:none;stroke:#FFFFFF;stroke-width:6.3568;stroke-linecap:round;stroke-miterlimit:10;}
	.st42{fill:none;stroke:#FFFFFF;stroke-width:10.0826;stroke-linecap:round;stroke-miterlimit:10;}
	
		.st43{opacity:0.4;fill:none;stroke:#FFFFFF;stroke-width:10.0826;stroke-linecap:round;stroke-miterlimit:10;enable-background:new    ;}
	.st44{opacity:0.4;fill:#FFFFFF;enable-background:new    ;}
	.st45{fill:#59C9A5;}
	.st46{fill:none;stroke:#FFFFFF;stroke-width:3.7181;stroke-linecap:round;stroke-linejoin:round;}
</style>
<rect class="st0" width="1440" height="1024"/>
<g>
	<defs>
		<rect id="SVGID_1_" x="188" y="121" width="1064.2" height="848.2"/>
	</defs>
	<clipPath id="SVGID_00000026149864228471456840000004981719373017526959_">
		<use xlink:href="#SVGID_1_"  style="overflow:visible;"/>
	</clipPath>
	<g style="clip-path:url(#SVGID_00000026149864228471456840000004981719373017526959_);">
		<path class="st2" d="M720.1,969.2c293.9,0,532.1-6.1,532.1-13.6c0-7.5-238.2-13.6-532.1-13.6c-293.9,0-532.1,6.1-532.1,13.6
			C188,963.1,426.2,969.2,720.1,969.2z"/>
		
			<linearGradient id="SVGID_00000129884358305671881130000006331487835087985053_" gradientUnits="userSpaceOnUse" x1="601.709" y1="903.827" x2="656.0409" y2="162.179" gradientTransform="matrix(1 0 0 -1 0 1024)">
			<stop  offset="0" style="stop-color:#FFFFFF"/>
			<stop  offset="1" style="stop-color:#94B9FF"/>
		</linearGradient>
		<path style="fill:url(#SVGID_00000129884358305671881130000006331487835087985053_);" d="M858.6,121H370.4
			c-7.3,0-13.1,5.9-13.1,13.1v321.3c0,7.3,5.9,13.1,13.1,13.1h488.2c7.3,0,13.1-5.9,13.1-13.1V134.1
			C871.7,126.9,865.8,121,858.6,121z"/>
		<path class="st4" d="M847.6,347.4h-91c-3.4,0-6.1,2.7-6.1,6.1v98.7c0,3.4,2.7,6.1,6.1,6.1h91c3.4,0,6.1-2.7,6.1-6.1v-98.7
			C853.7,350.1,851,347.4,847.6,347.4z"/>
		<path class="st0" d="M510.1,346.4H378.5c-2.9,0-5.2,2.3-5.2,5.2v101.6c0,2.9,2.3,5.2,5.2,5.2h131.6c2.9,0,5.2-2.3,5.2-5.2V351.5
			C515.3,348.7,513,346.4,510.1,346.4z"/>
		<path class="st0" d="M734.3,346.4H532.2c-3.5,0-6.4,2.8-6.4,6.4V452c0,3.5,2.9,6.4,6.4,6.4h202.1c3.5,0,6.4-2.8,6.4-6.4v-99.2
			C740.6,349.2,737.8,346.4,734.3,346.4z"/>
		<path class="st5" d="M845.6,166.4h-183c-4.5,0-8.2,3.7-8.2,8.2v153.6c0,4.5,3.7,8.2,8.2,8.2h183c4.5,0,8.2-3.7,8.2-8.2V174.6
			C853.7,170.1,850.1,166.4,845.6,166.4z"/>
		<path class="st6" d="M618.4,512.2c11.2-12.4,8-15.7,13.3-23c5.1-7.1,4-28.1,8.9-24.1c4.9,4,4.9,11.5,4.9,11.5
			c5.4-5.8,11.8-17.3,21.3-16.6c9.4,0.8,9.5,3.8,13.7,9.3c11,14.7-10.6,27.6-15.1,33.5c-2.9,3.6-19.6,12.8-21.8,15.2l-9.3,8.4
			L618.4,512.2z"/>
		<path class="st7" d="M654.4,479.7l16-17.8"/>
		<path class="st7" d="M660.9,484.8l16.6-16.2"/>
		<path class="st7" d="M668.6,490.5l9.7-9.9"/>
		<path class="st8" d="M450.9,612.2l-93.6,335.9h19.1l108.2-335.9H450.9z"/>
		<path class="st9" d="M450.9,612.2l-6.9,24.7l35.9-10.2l4.7-14.5H450.9z"/>
		<path class="st10" d="M1115.7,879.6l-50.7,67.4c-1.2,1.6-3,2.6-4.9,2.9c-2,0.3-4-0.2-5.6-1.4l-4.7-3.5l59.7-79.4l4.7,3.5
			c1.6,1.2,2.6,3,2.9,4.9C1117.4,876,1116.9,878,1115.7,879.6z"/>
		<path class="st11" d="M1067.9,840.2l18.3,14.9l-18.6,28.6l-20.6-15.7L1067.9,840.2z"/>
		<path class="st12" d="M1076,847.4l-22.8,24.8l-5.5-4.4l21.3-26.2L1076,847.4z"/>
		<path class="st13" d="M1083.8,853.2c0,0-5.1,18-22,27.3l-15.3,59.7c0.5,3.4,4.3,5.6,6.9,6.4c0.6,0.2,1.2,0.2,1.7,0
			c0.6-0.2,1-0.5,1.4-1l54.2-72c0.9-1.2,1.3-2.7,1.1-4.2c-0.2-1.5-1-2.8-2.2-3.8c-4.7-3.7-12-9.3-15.1-11.2
			C1089.5,851.4,1086.1,850.7,1083.8,853.2z"/>
		<path class="st0" d="M1058.2,892.8l8.7-1.9c0.3-0.1,0.7-0.1,1,0c0.3,0.1,0.6,0.3,0.8,0.5c0.2,0.2,0.4,0.5,0.5,0.8
			c0.1,0.3,0.1,0.6,0.1,1c-0.1,0.4-0.2,0.8-0.5,1c-0.3,0.3-0.6,0.5-1,0.6L1057,897L1058.2,892.8z"/>
		<path class="st0" d="M1056.1,902.3l8.6-1.9c0.3-0.1,0.7-0.1,1,0c0.3,0.1,0.6,0.3,0.8,0.5c0.2,0.2,0.4,0.5,0.5,0.8
			c0.1,0.3,0.1,0.6,0.1,1c-0.1,0.4-0.3,0.8-0.5,1c-0.3,0.3-0.6,0.5-1,0.6l-10.5,2.2L1056.1,902.3z"/>
		<path class="st0" d="M1053.5,912.6l8.6-1.9c0.3-0.1,0.6-0.1,1,0s0.6,0.3,0.8,0.5c0.2,0.2,0.4,0.5,0.5,0.8s0.1,0.6,0.1,1
			c-0.1,0.4-0.2,0.8-0.5,1c-0.3,0.3-0.6,0.5-1,0.6l-10.4,2.1L1053.5,912.6z"/>
		<path class="st14" d="M894.2,761.6l144.7,116.6l33-38.5L945.4,721.1L894.2,761.6z"/>
		<path class="st15" d="M971.8,745.8v78.3l67.1,54l9.6-60.4L971.8,745.8z"/>
		<path class="st14" d="M907,547.3L883.3,737h66.5l57.8-188.7L907,547.3z"/>
		<path class="st15" d="M964.1,690l11.2-94.1h27.5L964.1,690z"/>
		<path class="st10" d="M1023.8,951.3h-84.3c-2,0-3.9-0.8-5.3-2.2c-1.4-1.4-2.2-3.3-2.2-5.3v-5.9h99.3v5.9c0,2-0.8,3.9-2.2,5.3
			C1027.7,950.5,1025.8,951.3,1023.8,951.3z"/>
		<path class="st11" d="M1026.6,889.4l-0.9,23.5l-34.1,2.4l0.2-25.9H1026.6z"/>
		<path class="st12" d="M1025.7,900.2l-33.5-3.3l0.2-7.1l33.7,1.3L1025.7,900.2z"/>
		<path class="st13" d="M1025.7,909.9c0,0-17.5,6.7-35.1-1.2l-56.9,23.7c-2.4,2.4-1.9,6.8-1,9.4c0.2,0.6,0.6,1,1,1.4
			c0.5,0.3,1.1,0.5,1.6,0.5h90.1c1.5,0,2.9-0.6,4-1.6c1.1-1.1,1.7-2.5,1.7-4c0.1-6,0.2-15.2-0.1-18.9
			C1030.6,913.4,1029.1,910.2,1025.7,909.9z"/>
		<path class="st0" d="M978.6,913.3l6.7,5.8c0.2,0.2,0.4,0.5,0.6,0.8c0.1,0.3,0.2,0.6,0.1,1c0,0.3-0.2,0.6-0.3,0.9
			c-0.2,0.3-0.4,0.5-0.7,0.6c-0.4,0.2-0.8,0.2-1.2,0.2c-0.4-0.1-0.8-0.2-1.1-0.5l-8.1-7.2L978.6,913.3z"/>
		<path class="st0" d="M969.9,917.3l6.7,5.8c0.2,0.2,0.4,0.5,0.6,0.8c0.1,0.3,0.2,0.6,0.1,1c0,0.3-0.2,0.6-0.3,0.9
			c-0.2,0.3-0.4,0.5-0.7,0.6c-0.4,0.2-0.8,0.2-1.1,0.2c-0.4-0.1-0.8-0.2-1.1-0.5l-8.1-7.1L969.9,917.3z"/>
		<path class="st0" d="M960,921.4l6.7,5.7c0.2,0.2,0.4,0.5,0.6,0.8c0.1,0.3,0.2,0.6,0.1,1c0,0.3-0.2,0.6-0.3,0.9
			c-0.2,0.3-0.4,0.5-0.7,0.6c-0.4,0.2-0.8,0.2-1.1,0.2c-0.4-0.1-0.8-0.2-1.1-0.5l-7.9-7L960,921.4z"/>
		<path class="st14" d="M1047.8,548.3c-0.5,9.6-0.5,19.3,0,28.9c2.2,31.1-4.9,121.9-4.8,133.8c0,11.9-7.8,180.2-7.8,180.2h-47.8
			c0,0-12.2-144.6-12.5-161.1c-0.3-16.5-3.1-181-3.1-181L1047.8,548.3z"/>
		<path class="st15" d="M905.6,558.8l142.2,18.3v-28.9L906.3,553L905.6,558.8z"/>
		<path class="st14" d="M916.5,770.2c18.4,0,33.2-14.9,33.2-33.2s-14.9-33.2-33.2-33.2c-18.4,0-33.2,14.9-33.2,33.2
			S898.2,770.2,916.5,770.2z"/>
		
			<linearGradient id="SVGID_00000087376773453057706050000006315322013155138724_" gradientUnits="userSpaceOnUse" x1="727.8535" y1="428.1566" x2="727.9235" y2="393.3167" gradientTransform="matrix(1 0 0 -1 0 1024)">
			<stop  offset="0" style="stop-color:#FFFFFF"/>
			<stop  offset="1" style="stop-color:#94B9FF"/>
		</linearGradient>
		<path style="fill:url(#SVGID_00000087376773453057706050000006315322013155138724_);" d="M1164.2,595.9H291.5v16.2h872.8V595.9z"
			/>
		<path class="st17" d="M710.3,931c-12.9-4.6-26.2-9.3-38.4-8.4c-0.3,0-0.5,0.1-0.8,0.2c-0.2,0.1-0.5,0.3-0.6,0.5
			c-0.2,0.2-0.3,0.5-0.3,0.7c-0.1,0.3-0.1,0.6,0,0.8l5.1,21.7c0.1,0.4,0.4,0.8,0.7,1.1c0.4,0.3,0.8,0.4,1.3,0.3l83.3-8
			c6.1-0.6,9.1-4.2,9.5-9.2c0-0.2,0-0.3-0.1-0.5c-0.1-0.2-0.2-0.3-0.4-0.4c-0.2-0.1-0.3-0.1-0.5-0.1c-0.2,0-0.3,0.1-0.5,0.2
			c-9.2,6.9-20.7,9.9-32.1,8.4C728.4,937.4,719.4,934.2,710.3,931z"/>
		<path class="st18" d="M665.2,868.4c0,0,8.6,34.1,8.8,37.7c0,2-0.1,4.1-0.4,6.1c-0.4,3.6-0.8,7.6-0.2,10.3
			c11.8-0.4,24.5,4.1,36.8,8.5c9.1,3.2,18.1,6.4,26.3,7.4c10.8,1.4,21.8-1.2,30.8-7.5c-0.4-6.2-6.3-11.5-17.2-11.4
			c-19.5,0.2-30.3-0.2-41.1-13.3c-7.6-9.3-11.3-48.7-11.3-48.7L665.2,868.4z"/>
		<path class="st19" d="M706.7,900.8c-3.6,0.8-17.9,4.1-31.8,6.4c-2.7,0.4-3.6,6-1.5,8.8c1.4,2.1,2.7,4.2,3.7,6.5
			c4.9,0.3,9.7,1.1,14.4,2.4c-2.5-5.3,0.2-8.8,5.3-10c4-1,13.8-1.2,18.8-1.2c0.3,0,0.5-0.1,0.8-0.2c0.2-0.2,0.4-0.4,0.5-0.6
			c0.1-0.3,0.2-0.5,0.1-0.8c0-0.3-0.2-0.5-0.3-0.7l-8.5-10c-0.2-0.2-0.4-0.4-0.7-0.4C707.2,900.8,706.9,900.8,706.7,900.8z"/>
		<path class="st19" d="M757.7,936c-8.9,3.5-15.2,2.7-15.2,2.7l-1.9-19.7l15.4-0.8L757.7,936z"/>
		<path class="st6" d="M657.1,731c14.8-4.4,23.2-20,18.8-34.8c-4.4-14.8-20-23.2-34.8-18.8c-14.8,4.4-23.2,20-18.8,34.8
			C626.7,727,642.3,735.4,657.1,731z"/>
		<path class="st6" d="M657.3,677.5L611,661.6l-21.6,58.1l60,10.4L657.3,677.5z"/>
		<path class="st6" d="M676.8,700.5l23.5,175.9L669.8,887l-46.2-167L676.8,700.5z"/>
		<path class="st17" d="M580.1,943.2c-12.2-6.2-24.7-12.6-37-13.4c-0.3,0-0.6,0-0.8,0.1c-0.3,0.1-0.5,0.3-0.7,0.5
			c-0.2,0.2-0.3,0.4-0.4,0.7s-0.1,0.5-0.1,0.8l2.2,22.2c0,0.5,0.3,0.9,0.6,1.2c0.3,0.3,0.8,0.5,1.2,0.5l83.6,3
			c6.2,0.2,9.6-3,10.7-7.9c0-0.2,0-0.3,0-0.5c-0.1-0.2-0.2-0.3-0.3-0.4c-0.1-0.1-0.3-0.2-0.5-0.2c-0.2,0-0.3,0-0.5,0.1
			c-10,5.6-21.8,7.1-32.9,4.1C597.2,951.9,588.7,947.6,580.1,943.2z"/>
		<path class="st20" d="M543.7,875.2c0,0,4,34.9,3.8,38.6c-0.2,2-0.6,4-1.2,6c-0.9,3.5-1.8,7.5-1.5,10.2
			c11.7,1.2,23.7,7.3,35.3,13.2c8.6,4.4,17.1,8.7,25.1,10.8c10.6,2.8,21.8,1.6,31.5-3.3c0.4-6.2-4.7-12.2-15.5-13.5
			c-19.4-2.4-30-4.2-39-18.6c-6.4-10.3-4.8-49.8-4.8-49.8L543.7,875.2z"/>
		<path class="st19" d="M580.5,912.8c-3.7,0.4-18.3,1.7-32.4,2.1c-2.7,0.1-4.3,5.5-2.7,8.5c1.1,2.2,2.1,4.5,2.8,6.9
			c4.8,0.9,9.5,2.3,13.9,4.2c-1.8-5.6,1.3-8.7,6.6-9.3c4.1-0.5,13.8,0.7,18.8,1.3c0.3,0,0.6,0,0.8-0.1c0.3-0.1,0.5-0.3,0.6-0.5
			c0.1-0.2,0.2-0.5,0.2-0.8c0-0.3-0.1-0.5-0.2-0.8l-7.1-11c-0.1-0.2-0.3-0.4-0.6-0.5C581,912.8,580.8,912.8,580.5,912.8z"/>
		<path class="st19" d="M626.4,954.4c-9.3,2.2-15.4,0.7-15.4,0.7l0.7-19.8l15.3,1.3L626.4,954.4z"/>
		<path class="st21" d="M553.8,737.9c15.3-2.4,25.6-16.8,23.2-32.1c-2.4-15.3-16.8-25.6-32.1-23.2c-15.3,2.4-25.6,16.8-23.2,32.1
			C524.2,730,538.5,740.4,553.8,737.9z"/>
		<path class="st22" d="M577.3,710.3l0.1,177.5l-31.7,6.4L522,722.5L577.3,710.3z"/>
		<path class="st23" d="M494.4,645.5c0,0-8.5,41.7,2.6,59.1c14.1,22,31.4,25.4,44.2,25.6l69-5.9c0,0-0.5-39.6,25.1-54.5
			C635.3,669.8,530.6,631.1,494.4,645.5z"/>
		<path class="st6" d="M467.9,432.9l-5.5,28l-31.7-2.2l6.1-29.7L467.9,432.9z"/>
		<path class="st22" d="M467.5,434.5l-2.7,13.6c0,0-7.3-6.2-8.7-15.9L467.5,434.5z"/>
		<path class="st24" d="M420.9,466.7c0,0,7.2-18.8,11.5-16.6c10.2,5.4,25.2,4.4,31.8,1.2c4-2,4.1,15.4,4.1,15.4H420.9z"/>
		<path class="st24" d="M420.9,466.7l-30.4,4.1c-0.8,0.1-1.6,0.5-2.1,1.2c-0.5,0.7-0.8,1.5-0.7,2.3l21.2,201.5l109-10.7l-13.5-191.8
			l-36.1-6.7H420.9z"/>
		<path class="st25" d="M498.5,524.1l-8.5-15.5l2.1,15.5H498.5z"/>
		<path class="st24" d="M502.6,473c11.5,1.8,21.1,9.4,24.3,16.1l28.4,64.8l69.8-55.8L645,519l-62.8,77.5
			c-12.6,16.6-34.5,23.5-49.3,1.8L509.2,561L502.6,473z"/>
		<path class="st25" d="M555.3,553.9l7.9,15.6l6-26.8L555.3,553.9z"/>
		<path class="st24" d="M390.7,470.7c0,0-8.2-0.1-15.1,11.9c-6.9,12.1-34.9,85.2-34.9,85.2s-12.8,27.6,13.1,28.6H408L390.7,470.7z"
			/>
		<path class="st25" d="M396.8,524.1l-2.3-10.1l-5.7,10.1H396.8z"/>
		<path class="st9" d="M540.2,730.1H421.8c-3.7,0-7.3-1.3-10.1-3.8c-2.8-2.4-4.7-5.8-5.2-9.5l-25-175c-0.3-2.2-0.2-4.4,0.5-6.6
			c0.6-2.1,1.7-4.1,3.2-5.8s3.2-3,5.3-3.9c2-0.9,4.2-1.4,6.4-1.4h118.3c3.7,0,7.3,1.3,10.1,3.8c2.8,2.4,4.7,5.8,5.2,9.5l25,175
			c0.3,2.2,0.2,4.4-0.5,6.6c-0.6,2.1-1.7,4.1-3.2,5.8c-1.5,1.7-3.2,3-5.3,3.9C544.6,729.6,542.4,730.1,540.2,730.1z"/>
		<path class="st9" d="M532.2,730.1h90.6c0.8,0,1.5-0.2,2.2-0.6c0.7-0.4,1.2-1,1.6-1.6s0.6-1.4,0.6-2.2c0-0.8-0.2-1.5-0.6-2.2
			c-0.3-0.5-0.7-1-1.2-1.3c-0.5-0.4-1.1-0.6-1.6-0.7l-73.4-15.9L532.2,730.1z"/>
		
			<linearGradient id="SVGID_00000132782187119148355460000010740007262455061147_" gradientUnits="userSpaceOnUse" x1="447.4111" y1="499.2554" x2="503.1161" y2="64.5054" gradientTransform="matrix(1 0 0 -1 0 1024)">
			<stop  offset="0" style="stop-color:#FFFFFF"/>
			<stop  offset="1" style="stop-color:#94B9FF"/>
		</linearGradient>
		<path style="fill:url(#SVGID_00000132782187119148355460000010740007262455061147_);" d="M532.2,730.1H413.9
			c-3.7,0-7.3-1.3-10.1-3.8c-2.8-2.4-4.7-5.8-5.2-9.5l-25-175c-0.3-2.2-0.2-4.4,0.5-6.6c0.6-2.1,1.7-4.1,3.2-5.8
			c1.5-1.7,3.2-3,5.3-3.9c2-0.9,4.2-1.4,6.4-1.4h118.3c3.7,0,7.3,1.3,10.1,3.8c2.8,2.4,4.7,5.8,5.2,9.5l25,175
			c0.3,2.2,0.2,4.4-0.5,6.6c-0.6,2.1-1.7,4.1-3.2,5.8c-1.5,1.7-3.2,3-5.3,3.9C536.6,729.6,534.4,730.1,532.2,730.1z"/>
		<path class="st11" d="M1015.5,569.2c0,0-6.4,12.1-8,13.5c-1.5,1.4-27.2,4.6-32.2,6.3c-5,1.8-7.3,4.5-7.3,6.9h60.4
			c0,0,1.6-1.5,2.7-6.1c1.1-4.6,3.1-6.6,3.1-6.6L1015.5,569.2z"/>
		<path class="st27" d="M928.7,379c4-19.6-5.4-19.1-8.5-22.2c0,0-11.7-9.6-20.5-0.7c-9.4,9.5-63.3,83.1-63.3,83.1l33.7,31l6.3-7.6
			l16.4-19.6l17.6-20.9l2.2-2.4l23.7-26.8C936.3,393,926.4,389.4,928.7,379z"/>
		<path class="st27" d="M942.8,382.4c4.5-13.6-2.8-28.3-16.3-32.8c-13.6-4.5-28.3,2.8-32.8,16.3c-4.5,13.6,2.8,28.3,16.3,32.8
			C923.6,403.3,938.3,396,942.8,382.4z"/>
		<path class="st28" d="M912.3,419.7c0.7-4.1,2-12.3,3.5-19.8l7.8-36.1c0,0-20.9,30.9-30.5,52.4c-7.1,16.1-15.4,32.5-16.8,46.4
			l16.4-19.6l17.6-20.9L912.3,419.7z"/>
		<path class="st11" d="M802.7,356.4c-8-14.6-4.2-17.1-7.6-25.4c-3.4-8.1,2.6-28.2-3.1-25.5c-5.7,2.7-7.5,10-7.5,10
			c-3.9-6.9-7.5-19.6-16.8-21.1s-10.2,1.5-15.5,5.8c-14.1,11.7,3.9,29.3,6.9,36.1c1.9,4.2,16.1,17,17.7,19.8l7.1,10.4L802.7,356.4z"
			/>
		<path class="st29" d="M775.2,316.4l-11.4-21"/>
		<path class="st29" d="M767.7,319.8l-12.4-19.6"/>
		<path class="st29" d="M758.9,323.6l-7.1-11.9"/>
		<path class="st29" d="M778,335c0.1-7.3,4.4-16.1,4.4-16.1"/>
		<path class="st27" d="M870.4,438.7l-68.6-91.3c-0.4-0.5-1.1-0.9-1.7-1c-0.7-0.1-1.4,0-2,0.4l-18,11.9c-0.9,0.6-1.5,1.5-1.7,2.5
			c-0.2,1-0.1,2.1,0.4,3L834,465.8L870.4,438.7z"/>
		<path class="st27" d="M853.7,477.3c12.7,0,23-10.3,23-23s-10.3-23-23-23c-12.7,0-23,10.3-23,23S841.1,477.3,853.7,477.3z"/>
		<path class="st0" d="M949.7,336.2c0,0-33.5,10.6-40.1,13.4c-6.6,2.8-7,13.8-7.5,21.6c-0.3,5.5,5.9,95.6,6.3,147.7
			c0.1,11.1-2,18.2-3.3,24.4c-1.3,6.2,0,9.6,0,9.6l143.4,1.3c0,0-4.3-181.2-5.2-187.7c-0.9-6.4,6-12-1.5-15.2l-54.8-15.1H949.7z"/>
		<path class="st27" d="M931.7,342c0,0,5.5,25,9,45s4.7,185.6,4.7,185.6s-41.9-8.1-47.6-17.8c-5.7-9.6,5.3-52.9,6.1-92.2
			c0.9-39.3-7.4-100.3,1.3-110.9C905.2,351.8,907.4,349.6,931.7,342z"/>
		<path class="st27" d="M1002.1,340.4c0,0-19.9,41.4-18.7,54.1c1.2,12.6,1.3,120.3,0,142.8c-0.8,13.7-2.9,27.3-6.2,40.5
			c0,0,54.3,3.8,75.2-2.7c0,0,10-62.7,3.4-85c-6.5-22.4-11.5-138.7-11.5-138.7L1002.1,340.4z"/>
		<path class="st30" d="M1016.8,396.1c0,0,2,75.1,1.6,100.1c-0.3,15.6-18.1,22.2-18.1,31.2c0,5.3,14.1-0.9,17.9,4.6
			c3.8,5.5-2.7,22.8-2.7,22.8l33.1-0.7l13.2-64.3l-27.9-97.7L1016.8,396.1z"/>
		<path class="st11" d="M950.4,319.5l-3.1,35c0,0-0.8,5.4,8.6,7.2c7.5,1.4,23.1-7.4,26.6-10.3c7.8-6.5,8.5-10.4,7.7-13.3
			c-1.2-4.3-5.1-34.5-5.1-34.5L950.4,319.5z"/>
		<path class="st12" d="M948.3,348.1l1.9-21.6l16.7-8.2L948.3,348.1z"/>
		<path class="st11" d="M931.8,253.2c0,0-6.4,28.6-7.2,48.1c-0.9,19.6,6.2,23.4,14.9,24.9c6.9,1.2,17.5,1.2,24.3-2.1
			c12.2-6.1,32.3-21,35-23.8c4.1-4.5,3.8-24.3-11.8-29.3C975.6,267.4,946.8,237,931.8,253.2z"/>
		<path class="st31" d="M931.9,256.3c9.3,3.6,26.8,1.2,36.4,4.4c9.6,3.1,0.9,6.4,1.3,15.7c0.3,6,0.7,17.5,4.4,17.3
			c3.7-0.2,5.8-13.2,13.6-12.7c7.8,0.5,11.4,3.8,11.2,8.8c-0.2,5-5.7,9.3-10.1,11.6c-5.5,2.9-7.8,1.7-7.8,1.7s6.2,22.8,7.1,21.9
			c0,0,6.7-3.8,7.9-10.4c0,0,8.9-1.9,6.9-10.8c0,0,5.5-1.8,2.9-6.9c0,0,14.3-9.6,6.8-21.4c0,0,6.8-6.8-1.3-9.6c0,0,10.7-15.7-4.5-19
			c0,0,1-7.4-6-7.1c0,0-3-12.7-18.3-7.7c-0.1-2.5-0.9-5-2.4-7.1s-3.6-3.6-6-4.5c-8.6-3.5-14.2,1.3-14.2,1.3s-9.1-7.4-13.8,3.4
			c0,0-6.8-3.5-12,0.2c-5.1,3.7-2.6,11.5-2.6,11.5s-5.9-1.4-8,3.5c-3,6.8,1.2,9.3,1.2,9.3s-9.6,11.3,3.9,22L931.9,256.3z"/>
		<path class="st32" d="M955.3,284.5c0.5-2.3-0.3-4.5-1.8-4.8c-1.5-0.3-3.2,1.3-3.7,3.6c-0.5,2.3,0.3,4.5,1.8,4.8
			C953.1,288.4,954.8,286.8,955.3,284.5z"/>
		<path class="st32" d="M934.4,279.8c0.5-2.3-0.3-4.5-1.8-4.8c-1.5-0.3-3.2,1.3-3.7,3.6c-0.5,2.3,0.3,4.5,1.8,4.8
			C932.3,283.7,933.9,282.1,934.4,279.8z"/>
		<path class="st29" d="M938.5,285.9c0,0,2.6,5-1.2,5.1c-3.6,0-5.7,2-2.1,5.1"/>
		<path class="st12" d="M935.9,300.7L935.9,300.7L935.9,300.7c2.2,0.2,6.7,0.5,9.6,0.7l0,0h0c0.1,0,0.2,0,0.2,0.1
			c0.1,0.1,0.1,0.1,0.2,0.2c0,0.1,0,0.2,0,0.3c0,0.1,0,0.2-0.1,0.2c-0.6,0.7-1.5,1.6-2.4,2.3c-1,0.7-2,1.3-3,1.6
			c-1,0.2-1.9,0.1-2.7-0.5c-0.8-0.7-1.6-2-2.2-4.2l0,0l0,0c0-0.1,0-0.1,0-0.2c0-0.1,0-0.1,0.1-0.2c0-0.1,0.1-0.1,0.2-0.1
			C935.8,300.7,935.8,300.7,935.9,300.7z"/>
		<path class="st32" d="M962.5,276.9l-0.2,0.4c-0.2,0.6-0.7,1.1-1.4,1.4c-0.6,0.3-1.3,0.3-2,0l-10.9-4.5c-0.5-0.2-1-0.6-1.2-1.1
			c-0.3-0.5-0.3-1.1-0.2-1.6c0.1-0.3,0.2-0.7,0.4-0.9c0.2-0.3,0.5-0.5,0.8-0.7c0.3-0.2,0.6-0.3,1-0.3c0.3,0,0.7,0,1,0.1l11.1,4.1
			c0.3,0.1,0.6,0.3,0.8,0.5c0.2,0.2,0.4,0.5,0.6,0.7c0.1,0.3,0.2,0.6,0.2,0.9C962.7,276.3,962.6,276.6,962.5,276.9z"/>
		<path class="st32" d="M925.9,266.8l11.8-0.8c0.3,0,0.7,0,1,0.2c0.3,0.1,0.6,0.3,0.9,0.6c0.2,0.2,0.4,0.5,0.6,0.9
			c0.1,0.3,0.2,0.7,0.2,1c0,0.6-0.2,1.1-0.6,1.5c-0.4,0.4-0.9,0.7-1.5,0.7l-11.7,1.3c-0.7,0.1-1.4-0.2-1.9-0.6
			c-0.5-0.4-0.8-1.1-0.9-1.8l-0.1-0.5c0-0.3,0-0.6,0.1-0.9c0.1-0.3,0.3-0.6,0.5-0.8c0.2-0.2,0.5-0.4,0.8-0.5
			C925.2,266.8,925.6,266.8,925.9,266.8z"/>
		<path class="st27" d="M1045.4,369.4c-14.8-13.5-19.1-5.2-23.4-4.1c0,0-14.2,5.1-11.1,17.3c3.3,12.9,38.8,97,38.8,97l44.8-10.6
			l-4.1-11.7L1082,433l-8.9-25.8l-0.9-3.1l-10.8-34.1C1061.3,370,1053.1,376.6,1045.4,369.4z"/>
		<path class="st27" d="M1052.7,395.5c10.9-9.3,12.1-25.7,2.8-36.5c-9.3-10.9-25.7-12.1-36.5-2.8c-10.9,9.3-12.1,25.7-2.8,36.5
			C1025.5,403.6,1041.8,404.8,1052.7,395.5z"/>
		<path class="st27" d="M1049.3,467.7l-39.6,107.1c-0.2,0.7-0.2,1.4,0.1,2c0.3,0.6,0.8,1.1,1.4,1.4l19.7,8.7c1,0.4,2,0.4,3,0.1
			c1-0.3,1.8-1,2.3-1.9l55.6-101.4L1049.3,467.7z"/>
		<path class="st27" d="M1071.5,496.2c12.7,0,23-10.3,23-23s-10.3-23-23-23c-12.7,0-23,10.3-23,23S1058.8,496.2,1071.5,496.2z"/>
		<path class="st33" d="M451.5,730.1h86.3c0,9.5-3.8,18.6-10.5,25.4c-6.7,6.7-15.9,10.5-25.4,10.5h-14.5c-9.5,0-18.6-3.8-25.4-10.5
			C455.3,748.7,451.5,739.6,451.5,730.1z"/>
		<path class="st9" d="M496.5,766h-3.8v172.5h3.8V766z"/>
		<path class="st9" d="M492.7,938.5l-52.6,17h108.2l-51.8-17H492.7z"/>
		<path class="st33" d="M321.9,612.2l-93.6,335.9h19.1l108.2-335.9H321.9z"/>
		<path class="st34" d="M321.9,612.2l-6.9,24.7l35.9-10.2l4.7-14.5H321.9z"/>
		<path class="st8" d="M1119.6,612.2l93.6,335.9h-19.1l-108.2-335.9H1119.6z"/>
		<path class="st9" d="M1119.6,612.2l5.2,18.9l-34-3.8l-4.8-15.1H1119.6z"/>
		<path class="st6" d="M469.3,373.6c0,0,12.6,22.7,16.9,32.1c4.4,9.4,5.9,19.5-1.4,24.1c-9.9,6.3-20.8,4.9-32.6,3.6
			c-10.2-1.1-23-29.9-21.4-36.9C432.4,389.4,450.1,361.2,469.3,373.6z"/>
		<path class="st32" d="M478.7,399.6c0.9-0.7,0.8-2.4-0.3-3.8s-2.7-1.8-3.6-1.1c-0.9,0.7-0.8,2.4,0.3,3.8
			C476.1,399.9,477.8,400.4,478.7,399.6z"/>
		<path class="st32" d="M465.1,396.2l9.6-6.8c-0.2-0.3-0.5-0.5-0.8-0.6c-0.3-0.2-0.7-0.2-1-0.2c-0.4,0-0.7,0.1-1,0.2
			c-0.3,0.1-0.6,0.3-0.9,0.6l-6.4,6.4C464.3,395.9,464.8,396.4,465.1,396.2z"/>
		<path class="st35" d="M484.4,413.7c-1.3,0.8-2.8,1.2-4.3,1.2s-3-0.4-4.3-1.2"/>
		<path class="st14" d="M460.3,387.2l20.6-10.4c0,0-7.5-24.2-34.8-26.8c-20-1.9-38.7,9.2-45.9,26.4c-7.2,17.3-1,45.7,17.3,52.5
			c15.5,5.8,15,21.1,15,21.1l22.7-29.7c0,0-15.7-7.6-11.9-16.9c5.1-12.6,17.9,2,17.9,2l-8.7-25.2L460.3,387.2z"/>
		<path class="st6" d="M482,397.2c0,0,3.4,4.5,5.5,5.3c2.1,0.9,0.2,4-1.2,4.5C485,407.4,481.2,399.3,482,397.2z"/>
		<path class="st15" d="M397.3,421.5c13.5,0,24.4-10.9,24.4-24.4c0-13.5-10.9-24.4-24.4-24.4c-13.5,0-24.4,10.9-24.4,24.4
			C372.9,410.6,383.8,421.5,397.3,421.5z"/>
		<path class="st14" d="M394.6,422.6c13.5,0,24.4-10.9,24.4-24.4c0-13.5-10.9-24.4-24.4-24.4c-13.5,0-24.4,10.9-24.4,24.4
			C370.2,411.7,381.1,422.6,394.6,422.6z"/>
		<path class="st36" d="M633.5,166.4h-252c-4.5,0-8.1,3.6-8.1,8.1v153.6c0,4.5,3.6,8.1,8.1,8.1h252c4.5,0,8.1-3.6,8.1-8.1V174.5
			C641.6,170,638,166.4,633.5,166.4z"/>
		<path class="st37" d="M547.7,370.5h13.5"/>
		<path class="st38" d="M590.8,370.5h125.5"/>
		<path class="st37" d="M547.7,400h13.5"/>
		<path class="st39" d="M590.8,400h58.4"/>
		<path class="st37" d="M547.7,430h13.5"/>
		<path class="st40" d="M590.8,430h100.5"/>
		<path class="st41" d="M391.2,257.5c0,0,22.2-4.7,29.2,6.1c7,10.8,14.1,31.1,30.1,28.5c16-2.6,23.7-55.7,39.6-55.2
			c16,0.5,13.4,35.2,30.8,35.7c17.4,0.5,12.5-19.4,24.1-18.9c14.1,0.7,12.5,41.9,30.8,42.4c18.3,0.5,16.4-54.5,44.1-53.5"/>
		<path class="st42" d="M398.3,192.1h44.3"/>
		<path class="st43" d="M398.3,212.8h91.6"/>
		<path class="st44" d="M754.1,280.2c15.9,0,28.8-12.9,28.8-28.8c0-15.9-12.9-28.8-28.8-28.8c-15.9,0-28.8,12.9-28.8,28.8
			C725.3,267.3,738.2,280.2,754.1,280.2z"/>
		<path class="st0" d="M745.2,243.4v18.3c0,0.5,0.1,1,0.4,1.4c0.3,0.4,0.6,0.8,1,1.1c0.4,0.3,0.9,0.4,1.4,0.4c0.5,0,1-0.1,1.5-0.4
			l16.7-9.1c0.5-0.3,0.8-0.6,1.1-1.1c0.3-0.5,0.4-1,0.4-1.5c0-0.5-0.1-1-0.4-1.5c-0.3-0.5-0.7-0.8-1.1-1.1l-16.7-9.1
			c-0.4-0.2-0.9-0.4-1.5-0.4c-0.5,0-1,0.1-1.4,0.4c-0.4,0.3-0.8,0.6-1,1.1C745.3,242.4,745.2,242.9,745.2,243.4z"/>
		<path class="st45" d="M370.8,121h487.3c3.6,0,7,1.4,9.6,4c2.5,2.5,4,6,4,9.6v20.4H357.3v-20.4c0-3.6,1.4-7,4-9.6
			C363.8,122.4,367.2,121,370.8,121L370.8,121z"/>
		<path class="st34" d="M1164.2,595.9h-143.7v16.2h143.7V595.9z"/>
		<path class="st33" d="M990.6,612.2l93.6,335.9h-19.1L957,612.2H990.6z"/>
		<path class="st9" d="M990.6,612.2l6.9,24.7l-35.9-10.2l-4.7-14.5H990.6z"/>
		<path class="st5" d="M1111.8,323.2c39,0,70.6-31.6,70.6-70.6c0-39-31.6-70.6-70.6-70.6c-39,0-70.6,31.6-70.6,70.6
			C1041.2,291.6,1072.8,323.2,1111.8,323.2z"/>
		<path class="st46" d="M1136.9,250.9c0-4.6-1.2-9-3.6-13c-2.3-3.9-5.7-7.1-9.8-9.3c-4-2.1-8.6-3.2-13.1-2.9
			c-4.6,0.2-9,1.7-12.8,4.3c-3.8,2.5-6.8,6.1-8.8,10.2c-1.9,4.1-2.7,8.7-2.2,13.3c0.5,4.5,2.2,8.9,4.9,12.5
			c2.7,3.7,6.4,6.5,10.7,8.2v8.3h19v-8.3c4.6-1.9,8.6-5.1,11.4-9.3C1135.4,260.8,1136.9,255.9,1136.9,250.9L1136.9,250.9z"/>
		<path class="st46" d="M1102.3,282.5h19v4.1c0,1.7-0.7,3.4-1.9,4.6c-1.2,1.2-2.9,1.9-4.6,1.9h-6.1c-1.7,0-3.4-0.7-4.6-1.9
			c-1.2-1.2-1.9-2.9-1.9-4.6V282.5L1102.3,282.5z"/>
		<path class="st46" d="M1107.5,282.5v-28.9c0-0.7-0.3-1.4-0.8-1.8s-1.2-0.8-1.8-0.8h-0.1c-0.7,0-1.4,0.3-1.8,0.8
			c-0.5,0.5-0.8,1.2-0.8,1.8l0,0c0,0.3,0.1,0.7,0.2,1c0.1,0.3,0.3,0.6,0.6,0.8c0.2,0.2,0.5,0.4,0.8,0.6c0.3,0.1,0.7,0.2,1,0.2h13.9
			c0.3,0,0.7-0.1,1-0.2c0.3-0.1,0.6-0.3,0.8-0.6c0.2-0.2,0.4-0.5,0.6-0.8c0.1-0.3,0.2-0.7,0.2-1l0,0c0-0.7-0.3-1.4-0.8-1.8
			s-1.2-0.8-1.8-0.8h-0.2c-0.7,0-1.3,0.3-1.8,0.8s-0.8,1.2-0.8,1.8v28.9"/>
		<path class="st46" d="M1111.8,212.2v6.5"/>
		<path class="st46" d="M1088.5,218.4l3.2,5.6"/>
		<path class="st46" d="M1071.4,235.5l5.6,3.2"/>
		<path class="st46" d="M1152.1,235.5l-5.6,3.2"/>
		<path class="st46" d="M1135.1,218.5l-3.2,5.6"/>
		<path class="st0" d="M331.2,271.4c0-1.8-0.4-3.5-1-5.2c-0.6-1.4-1.4-2.7-2.5-3.8c-1.1-1.1-2.4-1.9-3.8-2.5c-1.7-0.6-3.4-1-5.2-1
			c-2.3-0.1-3-0.1-8.9-0.1s-6.6,0-8.8,0.1c-1.8,0-3.5,0.4-5.2,1c-1.4,0.6-2.7,1.4-3.8,2.5c-1.1,1.1-1.9,2.4-2.5,3.8
			c-0.6,1.7-1,3.4-1,5.2c-0.1,2.3-0.1,3-0.1,8.9s0,6.6,0.1,8.8c0,1.8,0.4,3.5,1,5.2c0.6,1.4,1.4,2.7,2.5,3.8
			c1.1,1.1,2.4,1.9,3.8,2.5c1.7,0.6,3.4,1,5.2,1c2.3,0.1,3,0.1,8.8,0.1c5.8,0,6.6,0,8.8-0.1c1.8,0,3.5-0.4,5.2-1
			c1.4-0.6,2.7-1.4,3.8-2.5c1.1-1.1,1.9-2.4,2.5-3.8c0.6-1.7,1-3.4,1-5.2c0.1-2.3,0.1-3,0.1-8.8S331.3,273.6,331.2,271.4z
			 M327.4,288.9c0,1.4-0.3,2.7-0.7,4c-0.4,0.9-0.9,1.8-1.6,2.5s-1.5,1.2-2.5,1.6c-1.3,0.5-2.6,0.7-4,0.7c-2.3,0.1-2.9,0.1-8.7,0.1
			c-5.7,0-6.4,0-8.7-0.1c-1.4,0-2.7-0.3-4-0.7c-0.9-0.3-1.8-0.9-2.5-1.6c-0.7-0.7-1.3-1.5-1.6-2.5c-0.5-1.3-0.7-2.6-0.7-4
			c-0.1-2.3-0.1-2.9-0.1-8.7c0-5.7,0-6.4,0.1-8.7c0-1.4,0.3-2.7,0.7-4c0.3-0.9,0.9-1.8,1.6-2.5c0.7-0.7,1.5-1.3,2.5-1.6
			c1.3-0.5,2.6-0.7,4-0.7c2.3-0.1,2.9-0.1,8.7-0.1c5.7,0,6.4,0,8.7,0.1c1.4,0,2.7,0.3,4,0.7c0.9,0.3,1.8,0.9,2.5,1.6
			c0.7,0.7,1.3,1.5,1.6,2.5c0.5,1.3,0.7,2.6,0.7,4c0.1,2.3,0.1,2.9,0.1,8.7C327.5,286,327.5,286.6,327.4,288.9z"/>
		<path class="st0" d="M309.9,269.2c-2.2,0-4.3,0.6-6.1,1.9c-1.8,1.2-3.2,2.9-4.1,4.9c-0.8,2-1.1,4.2-0.6,6.4c0.4,2.1,1.5,4.1,3,5.6
			c1.5,1.5,3.5,2.6,5.6,3c2.1,0.4,4.4,0.2,6.4-0.6c2-0.8,3.7-2.2,4.9-4.1c1.2-1.8,1.9-3.9,1.9-6.1c0-2.9-1.2-5.7-3.2-7.8
			C315.6,270.3,312.8,269.2,309.9,269.2z M309.9,287.4c-1.4,0-2.8-0.4-4-1.2c-1.2-0.8-2.1-1.9-2.6-3.2c-0.5-1.3-0.7-2.7-0.4-4.1
			c0.3-1.4,1-2.7,2-3.7c1-1,2.3-1.7,3.7-2c1.4-0.3,2.8-0.1,4.1,0.4c1.3,0.5,2.4,1.5,3.2,2.6c0.8,1.2,1.2,2.6,1.2,4
			c0,1.9-0.8,3.7-2.1,5.1C313.6,286.6,311.8,287.4,309.9,287.4z"/>
		<path class="st0" d="M323.9,268.7c0,0.5-0.2,1-0.4,1.4c-0.3,0.4-0.7,0.8-1.2,0.9c-0.5,0.2-1,0.2-1.5,0.1c-0.5-0.1-1-0.3-1.3-0.7
			c-0.4-0.4-0.6-0.8-0.7-1.3c-0.1-0.5,0-1,0.1-1.5c0.2-0.5,0.5-0.9,0.9-1.2c0.4-0.3,0.9-0.4,1.4-0.4c0.7,0,1.3,0.3,1.8,0.8
			S323.9,268.1,323.9,268.7z"/>
		<path class="st0" d="M316.4,187.8h3.7v-6.5c-1.8-0.2-3.6-0.3-5.4-0.3c-5.4,0-9.1,3.4-9.1,9.6v5.7h-5.9v7.3h5.9V222h7.3v-18.3h5.7
			l0.9-7.3h-6.6v-5C312.9,189.3,313.5,187.8,316.4,187.8L316.4,187.8z"/>
	</g>
</g>
</svg>
